<svg xmlns="http://www.w3.org/2000/svg" viewBox="0 0 32 32">
  <defs>
    <linearGradient id="flowGrad" x1="0%" y1="100%" x2="100%" y2="0%">
      <stop offset="0%" stop-color="#00629d"/>
      <stop offset="50%" stop-color="#2563eb"/>
      <stop offset="100%" stop-color="#38bdf8"/>
    </linearGradient>
  </defs>
  <rect width="32" height="32" rx="9" fill="url(#flowGrad)"/>
  <path d="M6 12a3 3 0 0 1 0 8v2a2 2 0 0 0 2 2h16a2 2 0 0 0 2-2v-2a3 3 0 0 1 0-8v-2a2 2 0 0 0-2-2H8a2 2 0 0 0-2 2Z" fill="none" stroke="#ffffff" stroke-width="2.2" stroke-linecap="round" stroke-linejoin="round"/>
  <path d="m13 16 2.5 2.5 5.5-5.5" fill="none" stroke="#ffffff" stroke-width="2.2" stroke-linecap="round" stroke-linejoin="round"/>
</svg>
